<?xml version="1.0" standalone="no"?><!DOCTYPE svg PUBLIC "-//W3C//DTD SVG 1.1//EN" "http://www.w3.org/Graphics/SVG/1.1/DTD/svg11.dtd"><svg t="1650244868330" class="icon" viewBox="0 0 1024 1024" version="1.1" xmlns="http://www.w3.org/2000/svg" p-id="818" xmlns:xlink="http://www.w3.org/1999/xlink" width="200" height="200"><defs><style type="text/css">@font-face { font-family: feedback-iconfont; src: url("//at.alicdn.com/t/font_1031158_u69w8yhxdu.woff2?t=1630033759944") format("woff2"), url("//at.alicdn.com/t/font_1031158_u69w8yhxdu.woff?t=1630033759944") format("woff"), url("//at.alicdn.com/t/font_1031158_u69w8yhxdu.ttf?t=1630033759944") format("truetype"); }
</style></defs><path d="M295.128728 881.958532v13.500698l-2.616176-5.227233c0 18.302993-1.310648 41.828099-3.921704 70.590678-1.930134 28.255726-3.379014 48.468374-4.362001 60.632825l-0.204788 2.488183 3.696436-41.188135c1.44888-16.17319 2.90288-32.295184 4.351761-48.365979l4.362-48.079276 0.348141-3.235662-1.658789-1.116099z m2.657134-7.771732l1.100739-9.266691c6.097585-48.703881 14.867662-89.072861 26.305113-121.101819-11.329937 64.493093-20.478874 156.868172-27.45193 277.135478 9.589233-145.538235 21.349226-228.764378 35.295339-249.678428v-3.921704c-2.611056-0.870352-4.35688-2.616176-5.227232-5.232353 10.454465-6.973056 15.686817-18.302993 15.686817-33.98981l3.921704-10.454465c-0.870352-8.713761-0.870352-16.557169 0-23.530226l3.921704-3.921704c0-3.486528 4.35688-22.219578 13.070642-56.214509l-1.305529-2.611056c-0.870352-2.616176 0.870352-8.278585 5.227233-16.997465 0-1.740704 0.870352-15.686817 2.611056-41.8281 9.589233-110.683192 29.63293-233.99673 60.136213-369.950852 19.173345 2.611056 54.033508 20.91405 104.580488 54.90386s78.869262 58.825565 84.971966 74.512382c24.400578 63.617621 36.165691 108.067016 35.295339 133.337946v10.459585c2.611056 7.843409 3.921704 15.686817 3.921704 23.530226 0 13.940993-3.921704 33.549515-11.765113 58.825564-36.605987 115.040073-83.226143 189.112159-139.875826 222.231618-59.260741 33.114339-103.710136 57.520036-133.337947 73.206853v1.305528l-3.921704 9.148937 18.302993-10.454465 10.454465 1.305528-26.141282 28.757459c6.967937-5.227233 13.070641-7.843409 18.297874-7.843409l5.232352 5.232352-22.224698 13.070642c78.434086-39.217043 121.572833-60.131093 129.416242-62.747269v2.611056a1218.00149 1218.00149 0 0 0-32.679162 16.997465c-11.329937 6.102704-19.173345 13.505817-23.530226 22.219578l19.603402-6.522521 3.926824-2.626416 5.227232-1.305528c7.843409-4.35688 13.946113-7.408233 18.302994-9.148937-8.71888 5.227233-15.256761 8.713761-19.608522 10.454465-11.329937 9.589233-19.608522 17.432641-24.840874 23.530226l-5.227232 1.310648-2.611057 2.611056-2.616176 3.921705c22.654754-12.200289 43.138747-20.478874 61.436621-24.835754l3.921705 2.611056c-7.843409 7.848528-17.867817 13.516057-30.062987 16.997465-9.589233 9.584113-16.562289 14.816465-20.919169 15.686817 4.35688-0.870352 12.640585-4.577028 24.840873-11.109788 12.200289-6.53788 21.784402-9.804261 28.757459-9.804261-7.843409 8.713761-12.635465 15.686817-14.381289 20.914049-12.200289 10.459585-21.784402 18.302993-28.757459 23.530226 30.503282-16.557169 54.033508-27.887106 70.590678-33.98981l1.305528 2.616176c-0.870352 2.611056-4.351761 4.792056-10.454465 6.53788-6.102704 1.740704-9.154057 4.792056-9.154057 9.148937-6.097585 6.973056-11.765113 12.200289-16.992345 15.686817h2.611056c5.232352 0.870352 39.657339-12.635465 103.27496-40.522571 72.336501-31.373634 128.981066-90.639495 169.943933-177.787342 7.843409-23.530226 13.505817-41.828099 16.992346-54.90386 6.973056-12.200289 12.200289-26.581578 15.686817-43.138747 6.973056-46.1901 11.765113-81.045143 14.381289-104.580488-7.843409-41.828099-13.075761-73.64203-15.686817-95.431552-16.562289-94.991255-54.90386-174.73087-115.040073-239.218843-1.740704-7.843409-13.940993-22.224698-36.605987-43.143867-22.654754-20.91405-37.471219-31.808811-44.439155-32.679162l-3.926824-2.611057-2.611057-7.848528c-43.573923-26.141282-73.64203-39.217043-90.199199-39.217043-11.329937 0-22.00455 3.921704-32.028958 11.765113a1737.361085 1737.361085 0 0 0-29.412783 23.530226c-8.713761-27.887106-15.251641-52.72286-19.608521-74.512382L421.928794 14.386409l-3.921704-2.616176L412.779857 3.921704h-2.616176c-1.740704 0-4.792056 0.435176-9.148937 1.305529l-2.457465 0.471014c-3.071831 0.563169-5.298909 0.839634-6.696591 0.839633l-6.532761 3.921705L380.095575 3.921704c-3.481409 0.870352-6.532761 1.305528-9.148937 1.305529l-2.611056 2.616176-1.310648 6.53788c-4.35688-5.232352-7.408233-8.71888-9.148937-10.459585V0l-2.616176 1.305528v2.616176h-2.611057c-0.875472 1.740704-1.310648 3.051352-1.310648 3.921705l-1.305528 2.611056v-1.305528c-7.848528-2.611056-13.946113-4.351761-18.302993-5.227233l-6.537881 5.227233h-5.227232L314.73213 16.997465l-9.148937-6.532761c-17.427521 9.584113-29.192634 25.706106-35.295339 48.36598-13.940993 86.277495-22.659874 153.386764-26.146402 201.317568-19.173345 140.311003-28.757458 234.867082-28.757458 283.668238 0 4.35688-3.921704 45.319747-11.765113 122.883482-2.611056 26.141282-3.921704 64.923149-3.921704 116.3456 0 32.243987 2.181 53.158036 6.53788 62.747269 0-25.27605 2.611056-65.363445 7.843409-120.267305 5.227233-66.233797 11.329937-104.145312 18.297873-113.729425-13.070641 108.061897-19.173345 200.877272-18.297873 278.441006l-0.015359 30.078346 0.035838-4.121374c0.373739-68.783417 5.63169-116.529911 15.778972-143.234362l1.192894-2.989915v36.605986c1.740704-75.82303 10.024409-133.343066 24.835754-172.560109l1.310648 11.765113-13.075761 116.345601 3.921705-3.921704c0-27.887106 3.051352-46.1901 9.154056-54.903861-0.870352-6.973056 0-13.505817 2.611056-19.608521l-5.222112-5.227233c0-2.611056 0.870352-6.102704 2.611056-10.459584l1.305528-1.305528h3.921705c0-20.919169 3.486528-46.1901 10.459584-75.82303l-0.015359 0.010239-0.020479 3.020634c-0.17407 8.468014-1.044423 20.146092-2.611056 35.029113l-0.624606 5.734085c-2.17588 19.608522-3.26638 34.640015-3.26638 45.104719a34.967677 34.967677 0 0 1-2.611057 13.065522l2.611057 6.53788-6.537881 56.214508c0.440296 1.740704 0.819155 3.675958 1.146817 5.800641l0.409578 3.123029 0.122873-1.535916c0.650204-8.345141 2.17588-19.316698 4.571909-32.894191l0.942028-5.216993c3.921704-21.349226 5.882556-35.950663 5.882556-43.794071h2.611057v11.765113c0 2.616176-0.650204 7.193204-1.960852 13.725965-1.305528 6.53788-1.520556 11.550085-0.650205 15.036613v3.921704h1.305528c1.740704 0.870352 3.051352 2.17588 3.921705 3.921704 1.356725 12.200289 0.870352 22.557479-1.469359 31.066452l-0.614367 1.904535 2.083726 1.018824-10.444226 156.72994 7.82293-49.507677 0.020479 7.684697 2.262915-24.922789 0.337902-3.706676 2.611056-3.921705c-1.740704-21.789522-1.740704-34.424987 0-37.911514l2.616176-3.921705c0.870352-3.486528 3.051352-18.302993 6.537881-44.444275 2.611056-20.919169 5.667528-33.119458 9.148937-36.605987l5.232352 3.921704 1.305528 7.843409c-14.816465 83.666438-22.219578 145.538235-22.219578 185.63075v15.686817c6.097585-69.720325 9.584113-105.015664 10.454465-105.886016 1.740704 1.740704 3.051352 3.481409 3.921704 5.222113l-2.611056 35.300458 2.657134 3.563324z" fill="#f8bc31" p-id="819"></path></svg>